# xmcd
# 
# Track frame offsets:
#     182
#     22490
#     42072
#     64760
#     87027
#     107542
# 
# Disc length: 2415
# 
# Revision: 32
# Processed by: cddbd v1.5.2PL0 Copyright (c) Steve Scherf et al.
# Submitted via: fre:ac v1.0.17
# 
DISCID=45096d06
DTITLE=The Alan Parsons Project - The Turn Of A Friendly Card
DYEAR=1980
DGENRE=Progressive Rock
TTITLE0=May Be A Price To Pay
TTITLE1=Games People Play
TTITLE2=Time
TTITLE3=I Don't Wanna Go Home
TTITLE4=The Gold Bug
TTITLE5=The Turn Of A Friendly Card [i. The Turn Of A Friendly Card (Part One) Ii. Snake Eyes Iii. The Aces
EXTD=
EXTT0=
EXTT1=
EXTT2=
EXTT3=
EXTT4=
EXTT5=
PLAYORDER=
